<?xml version="1.0" encoding="UTF-8"?><svg xmlns="http://www.w3.org/2000/svg" viewBox="0 0 7794.38 3667.94"><g id="a"><g id="b"><path d="M4324.24,1630.04c-454.18,0-822.36,368.18-822.36,822.36s368.18,822.36,822.36,822.36,822.36-368.18,822.36-822.36-368.18-822.36-822.36-822.36ZM4328.04,2910.11c-181.46,0-328.56-203.22-328.56-453.91s147.1-453.91,328.56-453.91,328.56,203.22,328.56,453.91-147.1,453.91-328.56,453.91Z" style="fill:#599d38; stroke:#529f37; stroke-miterlimit:10; stroke-width:14.88px;"/></g></g><g id="c"><path d="M1156.74,2542.33c3.28-54.72,8.87-109.41,9.41-164.15,1.52-155.44-3.52-311.07,2.5-466.31,6.22-160.23,96.56-244.8,241.75-239.52,147.76,5.38,225.95,91.91,226.12,252.69.35,348.84-.03,697.69-.25,1046.53-.12,183.8-26.68,232.16-152.95,279.88-127.88,48.33-283.37,13.15-369-99.99-82.01-108.35-149.89-227.38-223.35-342.11-71.49-111.65-142.01-223.93-213.56-335.54-5.4-8.42-15.69-13.73-47.08-40.19,0,161.84,2.22,302.81-.9,443.67-1.67,75.08-3.29,152.27-21.39,224.41-30.76,122.59-134.92,185.23-257.64,168.94-126.51-16.79-202.34-100.89-202.88-232-1.44-352.63-.81-705.27-1.17-1057.9-.18-171.53,55.76-261.4,187.08-299.56,134.68-39.14,284.49,18.05,362.53,146.98,131.35,217.01,258.01,436.83,387.02,655.25,12.89,21.82,28.35,42.13,42.62,63.15,10.38-1.41,20.77-2.82,31.15-4.23Z" style="fill:#529d36; stroke-width:0px;"/><path d="M2603.51,1649.75c165.93-.37,255.65,54.61,307.76,198.6,137.4,379.63,273.15,759.86,407.51,1140.57,55.01,155.87,25.04,214.65-126.48,266.59-150.98,51.76-232.18,15.91-280.37-128.4-20.38-61.01-50.8-89.6-121.55-85.67-125.11,6.95-251.05,5.71-376.31.34-64.47-2.77-93.74,21.86-117.17,78.9-65.01,158.27-224.08,198.77-359.02,93.93-65.15-50.62-94-111.57-62.18-198.31,144.23-393.23,283-788.46,427.5-1181.6,54.3-147.74,121.76-184.55,300.31-184.95ZM2409.42,2761.86c113.77,0,200.04-1.35,286.25.4,76.33,1.55,92.92-38.8,74.65-102.29-36.48-126.78-73.82-253.34-113.46-379.17-13.65-43.33-35.2-84.2-65.56-155.25-63.91,223.6-118.38,414.15-181.88,636.31Z" style="fill:#519d31; stroke-width:0px;"/><path d="M6129.08,3274.32c-222.44-3.47-400.35-52.62-565.81-141.8-134.08-72.26-179.59-197.19-117.45-296.57,60.42-96.63,132.16-116.99,231.09-57.7,77.76,46.6,145.5,114.17,227.84,147.47,73.58,29.75,163.43,41.45,241.48,29.94,45.94-6.77,101.21-68.37,116.9-116.72,9.26-28.55-41.67-98.03-80.99-116.6-109.25-51.59-227.07-84.92-340.61-127.81-145.82-55.08-295.67-106.61-381.33-251.08-91.32-154.01-71.4-296.15,52.79-449.81,167.61-207.38,397.06-244.87,638.58-213.61,128.64,16.65,256.58,67.16,375.53,122.31,139.36,64.62,172.98,184.14,100.84,285.38-66.64,93.52-217.99,95.03-328.05,20.4-81.68-55.38-174.79-99.72-269.07-128.95-64.99-20.15-142.16-2.39-163.34,82.88-21.46,86.38,32.18,139.63,103.45,167.38,130.79,50.91,265.23,92.48,397.82,138.84,226.71,79.27,359.69,232.14,364.53,417.75,5.58,214.1-159.03,400.01-412.2,459.43-73.14,17.16-149.05,22.63-192.01,28.86Z" style="fill:#559c36; stroke-width:0px;"/><path d="M7555.97,2471.06c.03,170.82.16,341.65,0,512.47-.17,186.92-69.92,278.02-219.97,287.85-138.2,9.05-257.41-102.38-260.94-270.9-7.3-349.08-9.6-698.65.8-1047.58,6.71-225.22,164.15-331.59,347.42-257.63,99.32,40.08,130.78,121.44,131.98,217.77,2.32,185.98.68,372.01.71,558.02Z" style="fill:#549c38; stroke-width:0px;"/></g><g id="d"><path d="M2790.31,965.31s-10.13,215.24-8.86,221.58,103.82,121.55,113.95,126.61c10.13,5.06,110.15,60.77,110.15,60.77l141.81-226.64,64.57-203.85,8.86-88.63-60.77-82.3-163.33-31.65-163.33,97.49-43.05,126.61Z" style="fill:#ffe5c6; stroke-width:0px;"/></g><g id="e"><path d="M4212.19,802.61s74.07-58.88,195.62-58.88,180.43,56.98,243.1,127.25c62.67,70.27,81.67,94.96,79.77,146.24-1.9,51.28-43.68,24.69-49.38,34.19-5.7,9.5,47.48,31.65,50.01,65.84,2.53,34.19-21.52,58.24-44.32,65.84-22.79,7.6,22.79,25.96,20.89,51.28-1.9,25.32-5.06,54.44-41.15,55.71-1.27,64.57-1.9,80.4-21.52,84.2s-31.02,15.19-31.65,37.98c-.63,22.79-11.4,29.12-29.12,34.19-17.73,5.06-45.58,12.03-47.48,31.02s-4.43,22.79-26.59,27.86c-22.16,5.06-66.47,7.6-74.07,8.86" style="fill:#d8c8d2; stroke:#000; stroke-miterlimit:10; stroke-width:14.88px;"/><path d="M4284.36,888.71s20.9-8.8,52.71-2.56c3.87.76,24.06-32.28,28.64-31.95,7.11.51-1.08,34.54,6.01,37.91,3.32,1.58,25.56-10.16,28.49-6.88,5.28,5.91-8.88,27.92-2.37,32.76,4.28,3.19,19.42-10.34,24.85-7.44,4.8,2.56,1.08,21.23,5.06,25.01,22.45,21.23,41.01,54.01,63.62,97.49,98.76,189.92-17.09,296.28-45.58,317.17l-9.49-3.48s-64.58-371.3-151.94-458.03Z" style="fill:#ffe5c6; stroke:#000; stroke-miterlimit:10; stroke-width:14.88px;"/><path d="M3490.96,2057.99c-84.99,0-117.28-18.99-117.75-63.15,0,0-3.8-67.9,84.99-72.17" style="fill:#d5cad2; stroke:#000; stroke-miterlimit:10; stroke-width:14.88px;"/></g><g id="f"><path d="M3689.9,1823.44c-5.7,46.85,12.03,114.27,34.82,114.9,22.79.63,84.83,15.19,85.46,18.36,0,.03.01.07.02.1,4.38,23.31-12.86,45.25-36.47,47.5-23.56,2.24-47.74,4.31-47.74,4.31,0,0,30.39,0,62.67,1.9,32.29,1.9,79.77,30.39,79.77,55.08s-24.69,75.97-85.47,77.87c-60.77,1.9-148.14-9.49-216.51-32.29-68.37-22.79-110.16-96.86-110.16-119.65,0-12.43-2.83-39.56,3.24-65.65,5.05-21.74,16.28-42.78,40.44-54,53.18-24.69-9.49-53.18-17.09-53.18-338.06,1.9-490-186.12-501.39-408.33-9.72-189.51,147.71-420.47,194.26-484.33,8.19-11.24,10.2-25.68,5.24-38.67-26.74-69.97-84.59-110.39-84.59-110.39-7.98-5.5-47.52-32.76-57.93-23.11-9.48,8.8,13.06,41.01,2.53,50.64-10.99,10.06-45.29-16.15-54.44-6.33-7.23,7.76,8.88,29.82,1.26,36.72-6.96,6.29-25.46-7.5-31.49-.95-3.9,4.24,2.96,10.95-.16,22.48-1.05,3.86-2.97,7.36-15.19,20.26-8.27,8.72-12.4,13.08-17.72,17.73-78.86,68.83-95.59,103.82-95.59,103.82-23.11,48.35-14.68,107.92-3.72,183.17.45,3.07.76,5.06.87,5.8,8.59,60.03,77.4,71.8,144.34,144.34,3.57,3.87,7.26,7.15,10.56,12.65,13.57,22.58.32,38.84,3.68,79.47,1.87,22.58,6.03,30.38,4.07,37.32-.38,1.34-1.09,2.78-2.17,4.46-11.19,17.47-47.19,12.63-70.27,9.5-18.32-2.48-38.56-5.46-42.42-17.09-1.74-5.26.32-10.87-3.16-13.29-4.26-2.96-10.51,3.23-17.09,4.43-19.12,3.48-37.14-35.91-70.27-72.81-9.61-10.7-21.86-22.72-37.35-34.82-17.45-15.11-23.3-29.06-25.32-39.25-1.28-6.45-.88-10.63-1.39-20.79-.47-9.33-1.02-13.98-1.14-14.66-3.19-18.85-26.17-20.8-43.05-46.22-3.65-5.5-11.91-17.92-7.6-24.69,5.28-8.3,25.79-2.34,28.49-9.5,1.06-2.82-1.24-6.05-3.8-9.49-11.54-15.58-22.13-27.44-24.69-30.39-7.92-9.11-20.97-24.12-17.09-32.29,5.22-10.98,37.29-1.64,39.88-9.49,2.93-8.89-32.88-36.88-44.32-44.32-2.76-1.79-11.32-7.22-11.43-14.56,0-.24.01-.45.03-.64,1.21-10.67,25.43-11.75,26.59-22.79.58-5.54-4.98-10.38-7.6-12.66-10.8-9.4-21.26-3.66-30.39-11.39-5.38-4.56-6.54-10.63-8.86-22.79-1.61-8.43-3.11-22.05,0-39.25,15.08-50.27,36.38-86.38,51.91-108.89,70.08-101.53,189.03-167.34,307.99-171.88,23.3-.89,155.72-5.66,244,79.6,24.32,23.49,35.14,43.96,39.94,47.65,12.35,9.5,179.16-173.14,488.1-165.55,308.94,7.6,453.91,166.5,527.98,255.76,74.07,89.26,170.93,296.28,165.23,533.68-5.7,237.4-37.98,277.28-163.33,336.16-68.68,32.26-193.31,75.57-372.25,74.07" style="fill:#d5cad2; stroke:#000; stroke-miterlimit:10; stroke-width:14.88px;"/></g><g id="h"><rect x="3733.59" y="1655.36" width="102.56" height="75.97" rx="37.98" ry="37.98" style="fill:#d35e54; stroke:#4c140c; stroke-miterlimit:10; stroke-width:3.72px;"/><path d="M3640.52,1450.24c-9.08,86.89,30.39,271.59,273.49,273.49,243.1,1.9,252.6-125.35,252.6-237.4s-32.29-351.35-246.9-358.95c-214.61-7.6-265.89,195.62-279.18,322.87Z" style="fill:#771d15; stroke:#210707; stroke-miterlimit:10; stroke-width:3.72px;"/><path d="M4058.35,1269.82c-15.06-3.48,1.11,27.06,2.06,34.66.95,7.6,27.38,50.8,36.88,86.89,9.5,36.09,9.5,99.71,7.6,121.55,7.6,31.34,19.94,17.09,24.69,12.34,4.75-4.75,7.6-95.91.95-128.2-6.65-32.29-35.14-118.7-72.17-127.25Z" style="fill:#fff; opacity:.63; stroke-width:0px;"/></g><g id="i"><path d="M4206.49,1349.59c13.29,37.98,39.88,55.08,74.07,53.18,34.19-1.9,56.97-32.29,56.97-100.66" style="fill:none; stroke:#000; stroke-miterlimit:10; stroke-width:29.75px;"/><path d="M3342.35,1307.8c0,41.78,36.09,91.16,96.86,93.06,60.77,1.9,112.05-15.19,117.75-77.87" style="fill:none; stroke:#000; stroke-miterlimit:10; stroke-width:29.75px;"/><path d="M3289.56,1491.87s9.94,6.89,14.35,6.89,14.72-15.51,22.82-12.63c8.1,2.87,18.03,11.49,21.71,13.78s17.91-9.67,20.49-11.68c2.58-2.01,17.42-10.43,25.88-.67,8.46,9.76,18.03,13.78,18.03,13.78l12.54-2.02" style="fill:none; stroke:#ef9c9a; stroke-miterlimit:10; stroke-width:26.78px;"/><ellipse cx="3288.91" cy="1492.32" rx="5.96" ry="3.26" transform="translate(-112.36 277.71) rotate(-4.75)" style="fill:none; stroke:#ef9c9a; stroke-miterlimit:10; stroke-width:14.88px;"/><path d="M3430.4,1496.82c1.49,1.68.95,3.98-1.2,5.15-2.15,1.17-5.11.75-6.6-.92-1.49-1.68-.95-3.98,1.2-5.15,2.15-1.17,5.11-.75,6.6.92Z" style="fill:none; stroke:#ef9c9a; stroke-miterlimit:10; stroke-width:14.88px;"/><path d="M4239.41,1493.25s7.04,3.63,10.17,3.63,10.43-8.16,16.17-6.65c5.74,1.51,12.78,6.05,15.38,7.26s12.69-5.09,14.51-6.15c1.83-1.06,12.34-5.49,18.34-.35,6,5.14,12.78,7.26,12.78,7.26l8.88-1.06" style="fill:none; stroke:#f2a7a5; stroke-miterlimit:10; stroke-width:14.88px;"/><path d="M4238.05,1492.87c2.66-.17,5.03.36,5.31,1.18s-1.66,1.62-4.31,1.79c-2.66.17-5.03-.36-5.31-1.18-.27-.82,1.66-1.62,4.31-1.79Z" style="fill:none; stroke:#f2a7a5; stroke-miterlimit:10; stroke-width:14.88px;"/><ellipse cx="4335.26" cy="1496.24" rx="2.2" ry=".27" transform="translate(-69.44 2773.68) rotate(-35.21)" style="fill:none; stroke:#f2a7a5; stroke-miterlimit:10; stroke-width:14.88px;"/></g><g id="j"><path d="M3643.69,1825.34c5.2-37.98,141.07-37.98,141.07-37.98,0,0,107.25,9.63,122.13,35.14,6.65,11.4,11.98,32.22,11.4,48.43-.85,23.34-13.24,42.26-17.09,47.01-4.79,5.9-65.55,36.56-102.55,36.56s-98.29-15.19-98.29-15.19" style="fill:#d5cad2; stroke:#000; stroke-miterlimit:10; stroke-width:14.88px;"/></g><g id="k"><path d="M3437.31,679.16s-863.51,877.44,103.82,1130.67c40.52,15.19,25.32,69-2.53,76.6-27.86,7.6-69.64,139.28,36.72,189.92,106.36,50.65,230.44,57.61,230.44,57.61,0,0-176.63,46.21-290.58-52.54l-24.22-23.42-44.16-1.27-50.65-14.56-20.89-37.35,3.8-40.52,21.52-24.06,32.29-12.66,22.79-8.23,12.03-12.66,11.4-17.09,18.36-16.46,22.16-15.83-5.06-23.42-29.75-16.46-99.71,1.74s-348.51-38.46-399.79-353.73l-26.59,13.3-43.68-3.8-32.29-6.96-10.76-7.6v-14.56l-19.62,3.17-24.69-15.83-52.54-60.77-36.72-35.45-15.19-27.22-4.43-32.92-6.96-22.79-23.42-18.99-18.36-23.42-1.27-13.93,12.03-11.4h13.93s-20.26-32.29-20.26-32.29l-25.96-31.65,3.8-14.56,30.39-1.27.63-15.19-31.65-24.06-18.39-21.52,10.16-10.13,15.83-10.76-5.06-17.09-22.79-6.33-15.83-10.13-4.43-44.95,10.13-35.45s86.73-239.93,320.97-251.33c234.24-11.4,282.35,88.63,282.35,88.63l32.29,34.5,65.21-38.3,115.22-65.21Z" style="fill:#000; opacity:.17; stroke-width:0px;"/></g></svg>